<svg width="64" height="64" viewBox="0 0 64 64" fill="none" xmlns="http://www.w3.org/2000/svg">
<path d="M27 46H7C5.89543 46 5 46.8954 5 48V55C5 56.1046 5.89543 57 7 57H27C28.1046 57 29 56.1046 29 55V48C29 46.8954 28.1046 46 27 46Z" stroke="white" stroke-width="2"/>
<path d="M27 29H7C5.89543 29 5 29.8954 5 31V38C5 39.1046 5.89543 40 7 40H27C28.1046 40 29 39.1046 29 38V31C29 29.8954 28.1046 29 27 29Z" stroke="white" stroke-width="2"/>
<path d="M27 12H7C5.89543 12 5 12.8954 5 14V21C5 22.1046 5.89543 23 7 23H27C28.1046 23 29 22.1046 29 21V14C29 12.8954 28.1046 12 27 12Z" stroke="white" stroke-width="2"/>
<path d="M55 46H36C34.8954 46 34 46.8954 34 48V55C34 56.1046 34.8954 57 36 57H55C56.1046 57 57 56.1046 57 55V48C57 46.8954 56.1046 46 55 46Z" stroke="white" stroke-width="2"/>
<path d="M55 29H36C34.8954 29 34 29.8954 34 31V38C34 39.1046 34.8954 40 36 40H55C56.1046 40 57 39.1046 57 38V31C57 29.8954 56.1046 29 55 29Z" stroke="white" stroke-width="2"/>
<path d="M57 19V21C57 21.5304 56.7893 22.0391 56.4142 22.4142C56.0391 22.7893 55.5304 23 55 23H36C35.4696 23 34.9609 22.7893 34.5858 22.4142C34.2107 22.0391 34 21.5304 34 21V14C34 13.4696 34.2107 12.9609 34.5858 12.5858C34.9609 12.2107 35.4696 12 36 12H50" stroke="white" stroke-width="2"/>
<path d="M52 12H62" stroke="white" stroke-width="2"/>
<path d="M57 7V17" stroke="white" stroke-width="2"/>
</svg>
