<svg width="277" height="96" viewBox="0 0 277 96" fill="none" xmlns="http://www.w3.org/2000/svg">
<path d="M80.3993 48.5265H65.6785V33.8526H57.4219V66.916H65.6785V50.8275H80.3993V66.916H88.6571V33.8526H80.3993V48.5265Z" fill="#C80421"/>
<path d="M98.1729 66.918H106.431V33.8545H98.1729V66.918Z" fill="#C80421"/>
<path d="M114.144 65.9148C112.707 65.9148 110.917 65.325 109.66 64.263L108.404 66.386C110.021 67.6237 112.578 68.5078 115.585 68.5078C123.647 68.5078 129.964 63.4472 133.912 50.0087C137.324 38.3407 139.641 35.4444 144.308 35.4444C145.678 35.4444 147.181 35.7992 148.259 36.5053L149.157 34.2078C147.698 33.4132 145.319 32.9689 142.984 32.9689C135.085 32.9689 128.752 37.3984 124.979 49.6584C120.86 63.0499 118.861 65.9148 114.144 65.9148Z" fill="#C80421"/>
<path d="M265.307 50.4756C265.307 59.3156 261.717 65.5021 254.537 65.5021C247.355 65.5021 243.584 59.3156 243.584 50.4756C243.584 41.6345 247.355 35.27 254.537 35.27C261.717 35.27 265.307 41.6345 265.307 50.4756ZM273.743 50.4756C273.743 37.5698 262.793 33.325 254.537 33.325C246.276 33.325 235.147 37.5698 235.147 50.4756C235.147 63.3814 246.276 67.4483 254.537 67.4483C262.793 67.4483 273.743 63.3814 273.743 50.4756Z" fill="#C80421"/>
<path d="M204.984 35.9744H207.138C215.576 35.9744 221.86 39.512 221.86 50.4738C221.86 61.2555 215.576 64.793 207.138 64.793H204.984V35.9744ZM196.727 66.916H208.215C219.167 66.916 230.295 63.2028 230.295 50.4738C230.295 37.5681 219.167 33.8526 208.215 33.8526H196.727V66.916Z" fill="#C80421"/>
<path d="M159.387 64.6162V50.8275H171.955V48.5266H159.387V36.1524H172.852V33.8526H151.13V66.916H173.392V64.6162H159.387Z" fill="#C80421"/>
<path d="M178.958 66.918H187.214V33.8545H178.958V66.918Z" fill="#C80421"/>
<path d="M32.2893 46.765C26.5455 61.6136 22.9526 67.2719 15.4141 67.2719C10.9942 67.2719 7.19491 64.8568 5.2822 62.4675L3.26172 64.5446C5.5783 67.3905 10.6947 70.2779 17.1873 70.2779C29.0356 70.2779 35.7006 64.088 41.6248 47.9983C46.8297 33.8548 50.5996 28.3756 58.4988 28.3756C61.1921 28.3756 63.8853 29.2574 65.68 30.8511L67.1174 28.5513C64.6034 26.6062 60.4739 25.7232 57.0626 25.7232C46.4701 25.7232 38.2135 31.2036 32.2893 46.765Z" fill="#C80421"/>
</svg>
