<svg width="64" height="64" viewBox="0 0 64 64" fill="none" xmlns="http://www.w3.org/2000/svg">
<path d="M32 54C44.1503 54 54 44.1503 54 32C54 19.8497 44.1503 10 32 10C19.8497 10 10 19.8497 10 32C10 44.1503 19.8497 54 32 54Z" stroke="white" stroke-width="2" stroke-linecap="round" stroke-linejoin="round"/>
<path d="M37.8604 36.2909C37.8604 37.4296 37.4486 38.3462 36.625 39.0409C35.8014 39.7284 34.6484 40.1402 33.166 40.2762V42.4784H31.6943V40.3192C29.9469 40.2834 28.4144 39.9755 27.0967 39.3954V36.5594C27.7197 36.8674 28.4681 37.1395 29.3418 37.3759C30.2227 37.6122 31.0068 37.7518 31.6943 37.7948V34.4647L30.9746 34.1854C29.5566 33.6268 28.5505 33.0217 27.9561 32.37C27.3688 31.7111 27.0752 30.8983 27.0752 29.9315C27.0752 28.8931 27.4798 28.0409 28.2891 27.3749C29.1055 26.7017 30.2406 26.2935 31.6943 26.1503V24.5067H33.166V26.1073C34.806 26.1789 36.2884 26.5083 37.6133 27.0956L36.6035 29.6093C35.4863 29.1509 34.3405 28.8716 33.166 28.7714V31.9403C34.5625 32.4774 35.5544 32.9429 36.1416 33.3368C36.736 33.7307 37.1693 34.1639 37.4414 34.6366C37.7207 35.1093 37.8604 35.6607 37.8604 36.2909ZM34.627 36.452C34.627 36.1512 34.5052 35.897 34.2617 35.6893C34.0182 35.4816 33.653 35.2668 33.166 35.0448V37.7196C34.14 37.5549 34.627 37.1324 34.627 36.452ZM30.3086 29.9315C30.3086 30.2466 30.416 30.508 30.6309 30.7157C30.8529 30.9162 31.2074 31.1239 31.6943 31.3387V28.8143C30.7705 28.9504 30.3086 29.3228 30.3086 29.9315Z" fill="white"/>
<path d="M5.63 11.45C5.36478 11.45 5.11043 11.3447 4.92289 11.1571C4.73536 10.9696 4.63 10.7153 4.63 10.45C4.62481 9.48705 4.24132 8.56469 3.56225 7.88187C2.88318 7.19906 1.96294 6.81052 1 6.80003C0.734784 6.80003 0.48043 6.69468 0.292893 6.50714C0.105357 6.3196 0 6.06525 0 5.80003C0 5.53482 0.105357 5.28046 0.292893 5.09293C0.48043 4.90539 0.734784 4.80003 1 4.80003C1.9647 4.79481 2.88855 4.40995 3.57164 3.72873C4.25473 3.04751 4.64213 2.12472 4.65 1.16003C4.65 0.894818 4.75536 0.640464 4.94289 0.452927C5.13043 0.265391 5.38478 0.160034 5.65 0.160034C5.91522 0.160034 6.16957 0.265391 6.35711 0.452927C6.54464 0.640464 6.65 0.894818 6.65 1.16003C6.64868 1.64151 6.74238 2.11852 6.92573 2.56373C7.10907 3.00893 7.37845 3.41359 7.71845 3.75451C8.05844 4.09543 8.46236 4.36592 8.90707 4.55048C9.35177 4.73504 9.82852 4.83004 10.31 4.83003C10.5752 4.83003 10.8296 4.93539 11.0171 5.12293C11.2046 5.31046 11.31 5.56482 11.31 5.83003C11.31 6.09525 11.2046 6.34961 11.0171 6.53714C10.8296 6.72468 10.5752 6.83003 10.31 6.83003C9.33931 6.83003 8.40837 7.21564 7.72199 7.90202C7.03561 8.58841 6.65 9.51934 6.65 10.49C6.63958 10.7518 6.52689 10.9989 6.33616 11.1785C6.14542 11.358 5.89187 11.4555 5.63 11.45ZM4.16 5.81003C4.73582 6.20596 5.23408 6.70421 5.63 7.28003C6.03073 6.70823 6.5282 6.21077 7.1 5.81003C6.52418 5.41411 6.02592 4.91586 5.63 4.34003C5.23964 4.92046 4.74042 5.41967 4.16 5.81003Z" fill="white"/>
<path d="M58.46 10.31C58.2319 10.31 58.0131 10.2194 57.8519 10.0581C57.6906 9.89683 57.6 9.67809 57.6 9.45C57.6 8.60396 57.2639 7.79257 56.6656 7.19433C56.0674 6.59609 55.256 6.26 54.41 6.26C54.1992 6.23717 54.0042 6.13725 53.8626 5.97944C53.7209 5.82163 53.6426 5.61705 53.6426 5.405C53.6426 5.19295 53.7209 4.98837 53.8626 4.83056C54.0042 4.67275 54.1992 4.57283 54.41 4.55C54.8289 4.55 55.2437 4.46749 55.6307 4.30718C56.0178 4.14686 56.3694 3.91189 56.6656 3.61567C56.9619 3.31945 57.1968 2.96779 57.3572 2.58076C57.5175 2.19373 57.6 1.77892 57.6 1.36C57.6 1.13191 57.6906 0.913169 57.8519 0.751888C58.0131 0.590607 58.2319 0.5 58.46 0.5C58.6881 0.5 58.9068 0.590607 59.0681 0.751888C59.2294 0.913169 59.32 1.13191 59.32 1.36C59.32 2.20604 59.6561 3.01743 60.2543 3.61567C60.8525 4.21391 61.6639 4.55 62.51 4.55C62.7208 4.57283 62.9158 4.67275 63.0574 4.83056C63.199 4.98837 63.2774 5.19295 63.2774 5.405C63.2774 5.61705 63.199 5.82163 63.0574 5.97944C62.9158 6.13725 62.7208 6.23717 62.51 6.26C61.6639 6.26 60.8525 6.59609 60.2543 7.19433C59.6561 7.79257 59.32 8.60396 59.32 9.45C59.32 9.67809 59.2294 9.89683 59.0681 10.0581C58.9068 10.2194 58.6881 10.31 58.46 10.31ZM57.18 5.4C57.681 5.74523 58.1147 6.17901 58.46 6.68C58.8052 6.17901 59.239 5.74523 59.74 5.4C59.2347 5.05991 58.8001 4.62525 58.46 4.12C58.1199 4.62525 57.6852 5.05991 57.18 5.4Z" fill="white"/>
<path d="M32 61C48.0163 61 61 48.0163 61 32C61 15.9837 48.0163 3 32 3C15.9837 3 3 15.9837 3 32C3 48.0163 15.9837 61 32 61Z" stroke="white" stroke-width="2" stroke-linecap="round" stroke-linejoin="round"/>
</svg>
