<svg width="64" height="64" viewBox="0 0 64 64" fill="none" xmlns="http://www.w3.org/2000/svg">
<g clip-path="url(#clip0_712_1274)">
<path d="M4.83984 32C4.83984 17 16.9998 4.83997 31.9998 4.83997C37.0298 4.83997 41.7298 6.20997 45.7698 8.57997C47.8498 9.79997 49.7398 11.29 51.4198 13.01" stroke="white" stroke-width="2" stroke-miterlimit="10"/>
<path d="M59.1596 32C59.1596 47 46.9996 59.16 31.9996 59.16C24.4896 59.16 17.6996 56.11 12.7796 51.19C11.1796 49.59 9.77963 47.79 8.61963 45.82" stroke="white" stroke-width="2" stroke-miterlimit="10"/>
<path d="M55.3296 35.83L59.1396 32.03L62.9996 35.89" stroke="white" stroke-width="2" stroke-miterlimit="10"/>
<path d="M8.64973 29.1799L4.80973 33.0199L0.969727 29.1699" stroke="white" stroke-width="2" stroke-miterlimit="10"/>
<path d="M23.1497 30.94C25.8997 30.94 28.1197 28.71 28.1197 25.97C28.1197 23.23 25.8897 21 23.1497 21C20.4097 21 18.1797 23.23 18.1797 25.97C18.1797 28.71 20.4097 30.94 23.1497 30.94Z" stroke="white" stroke-width="2" stroke-miterlimit="10"/>
<path d="M33.4199 42.5599C32.5599 37.6599 28.2899 33.9399 23.1499 33.9399C18.0099 33.9399 13.7399 37.6699 12.8799 42.5599" stroke="white" stroke-width="2" stroke-miterlimit="10"/>
<path d="M40.1497 30.94C42.8997 30.94 45.1197 28.71 45.1197 25.97C45.1197 23.23 42.8897 21 40.1497 21C37.4097 21 35.1797 23.23 35.1797 25.97C35.1797 28.71 37.4097 30.94 40.1497 30.94Z" stroke="white" stroke-width="2" stroke-miterlimit="10"/>
<path d="M50.4197 42.5599C49.5597 37.6599 45.2897 33.9399 40.1497 33.9399C37.811 33.9399 35.6475 34.7161 33.9033 36.0169" stroke="white" stroke-width="2" stroke-miterlimit="10"/>
</g>
<defs>
<clipPath id="clip0_712_1274">
<rect width="64" height="64" fill="white"/>
</clipPath>
</defs>
</svg>
